<svg xmlns="http://www.w3.org/2000/svg" width="10" height="10" viewBox="0 0 256.187 326.443">
  <g id="Group_13" data-name="Group 13" transform="translate(-681.5 -2044.5)">
    <path id="Path_23" data-name="Path 23" d="M114.784,0h53.278V244.191c-27.29,5.162-47.381,7.193-69.117,7.193C33.873,251.316,0,222.245,0,166.412,0,112.617,35.93,77.7,91.608,77.7a86.654,86.654,0,0,1,23.176,2.717Zm1.867,124.427a53.636,53.636,0,0,0-17.965-2.717c-26.948,0-42.513,16.437-42.513,45.243,0,28.046,14.88,43.532,42.17,43.532a125.7,125.7,0,0,0,18.307-1.351Z" transform="translate(682 2045)" fill="#010101" stroke="#000" stroke-width="1"/>
    <path id="Path_26" data-name="Path 26" d="M255.187,84.261V206.523c0,42.105-3.154,62.353-12.411,79.809-8.64,16.784-20.022,27.367-43.541,39.056l-49.438-23.3c23.519-10.929,34.9-20.588,42.169-35.327,7.612-15.072,10.011-32.529,10.011-78.445V84.261Z" transform="translate(682 2045)" stroke="#707070" stroke-width="1"/>
    <path id="Path_27" data-name="Path 27" d="M196.608,0h53.278V54.135H196.608V0Z" transform="translate(682 2045)" stroke="#707070" stroke-width="1"/>
  </g>
</svg>
